<svg width="75" height="74" viewBox="0 0 75 74" fill="none" xmlns="http://www.w3.org/2000/svg">
<path d="M37.5003 0C16.7922 0 0 16.7891 0 37.5003C0 54.0689 10.745 68.1256 25.645 73.0842C27.5191 73.4314 28.2072 72.2708 28.2072 71.2803C28.2072 70.386 28.1724 67.432 28.1563 64.2985C17.7237 66.567 15.5223 59.8739 15.5223 59.8739C13.8164 55.5394 11.3585 54.3869 11.3585 54.3869C7.95612 52.0594 11.615 52.1072 11.615 52.1072C15.3807 52.3718 17.3635 55.9716 17.3635 55.9716C20.7081 61.7046 26.1362 60.0472 28.2761 59.089C28.6127 56.6653 29.5846 55.011 30.657 54.0745C22.3277 53.1263 13.5717 49.9108 13.5717 35.5417C13.5717 31.4475 15.0366 28.1023 17.4355 25.4761C17.0462 24.5316 15.7626 20.7174 17.7988 15.5521C17.7988 15.5521 20.9478 14.5442 28.1141 19.396C31.1054 18.5651 34.3134 18.1484 37.5003 18.1341C40.6872 18.1484 43.8977 18.5651 46.8946 19.396C54.0522 14.5442 57.1969 15.5521 57.1969 15.5521C59.238 20.7174 57.9538 24.5316 57.5645 25.4761C59.969 28.1023 61.4239 31.4475 61.4239 35.5417C61.4239 49.9449 52.6512 53.1163 44.3008 54.0447C45.6458 55.2084 46.8443 57.4906 46.8443 60.9892C46.8443 66.0068 46.8009 70.0451 46.8009 71.2803C46.8009 72.2782 47.4759 73.4475 49.3767 73.0793C64.2687 68.1151 75 54.0633 75 37.5003C75 16.7891 58.2103 0 37.5003 0ZM14.0451 53.42C13.9625 53.6063 13.6694 53.6622 13.4024 53.5342C13.1304 53.4119 12.9776 53.1579 13.0658 52.971C13.1465 52.7791 13.4402 52.7257 13.7116 52.8543C13.9842 52.9766 14.1395 53.2331 14.0451 53.42ZM15.8897 55.0659C15.7108 55.2317 15.3612 55.1547 15.124 54.8926C14.8787 54.6312 14.8328 54.2816 15.0141 54.1133C15.1985 53.9475 15.5376 54.0251 15.7835 54.2866C16.0288 54.5511 16.0766 54.8982 15.8897 55.0659ZM17.1551 57.1718C16.9254 57.3314 16.5497 57.1817 16.3174 56.8482C16.0877 56.5148 16.0877 56.1149 16.3224 55.9546C16.5553 55.7944 16.9254 55.9385 17.1607 56.2695C17.3899 56.6085 17.3899 57.0085 17.1551 57.1718ZM19.2953 59.6107C19.0898 59.8374 18.652 59.7765 18.3315 59.4672C18.0037 59.1648 17.9124 58.7357 18.1185 58.5091C18.3266 58.2818 18.7669 58.3457 19.0898 58.6525C19.4152 58.9543 19.5145 59.3865 19.2953 59.6107ZM22.0613 60.434C21.9706 60.7278 21.549 60.8613 21.1242 60.7365C20.7001 60.6079 20.4225 60.2639 20.5082 59.9671C20.5964 59.6715 21.0199 59.5324 21.4477 59.6659C21.8713 59.7938 22.1495 60.1353 22.0613 60.434ZM25.2091 60.7833C25.2196 61.0925 24.8594 61.349 24.4136 61.3546C23.9652 61.3645 23.6026 61.1143 23.5976 60.81C23.5976 60.4976 23.9497 60.2436 24.3981 60.2362C24.8439 60.2275 25.2091 60.4759 25.2091 60.7833ZM28.3014 60.6648C28.3548 60.9666 28.0449 61.2764 27.6022 61.359C27.1669 61.4385 26.7638 61.2522 26.7086 60.9529C26.6545 60.6436 26.97 60.3338 27.4047 60.2537C27.8481 60.1767 28.2449 60.358 28.3014 60.6648Z" fill="white"/>
</svg>
