<svg width="128" height="126" viewBox="0 0 128 126" fill="none" xmlns="http://www.w3.org/2000/svg">
<path d="M109.013 107.015H90.2202V77.8744C90.2202 70.9255 90.0949 61.9801 80.4459 61.9801C70.6578 61.9801 69.1602 69.5512 69.1602 77.3685V107.013H50.3671V47.0879H68.4084V55.2773H68.661C70.4665 52.2207 73.0755 49.7061 76.2102 48.0015C79.3448 46.2968 82.8878 45.466 86.4616 45.5973C105.509 45.5973 109.021 58.0026 109.021 74.1412L109.013 107.015ZM29.1623 38.8965C27.0053 38.8969 24.8966 38.264 23.1029 37.0777C21.3093 35.8915 19.9112 34.2053 19.0854 32.2322C18.2596 30.2592 18.0432 28.0881 18.4636 25.9933C18.8841 23.8985 19.9224 21.9743 21.4474 20.4638C22.9723 18.9533 24.9154 17.9245 27.0308 17.5075C29.1463 17.0905 31.3391 17.3039 33.332 18.1209C35.3249 18.9378 37.0284 20.3216 38.2271 22.0972C39.4258 23.8727 40.0658 25.9604 40.0662 28.0961C40.0664 29.5142 39.7846 30.9184 39.2367 32.2287C38.6889 33.5389 37.8859 34.7294 36.8734 35.7324C35.8608 36.7353 34.6586 37.5309 33.3356 38.0738C32.0125 38.6167 30.5945 38.8963 29.1623 38.8965ZM38.5588 107.015H19.7462V47.0879H38.5588V107.015ZM118.382 0.0194204H10.3027C7.84961 -0.00799025 5.48575 0.930039 3.73078 2.62738C1.97581 4.32472 0.973298 6.6425 0.943359 9.07142V116.531C0.972273 118.961 1.9742 121.28 3.72911 122.979C5.48402 124.678 7.84839 125.618 10.3027 125.592H118.382C120.842 125.623 123.213 124.686 124.974 122.987C126.736 121.287 127.745 118.965 127.779 116.531V9.06367C127.744 6.62994 126.734 4.30951 124.973 2.61221C123.211 0.914914 120.84 -0.0204341 118.382 0.0116639" fill="white"/>
</svg>
